<svg id="Layer_1" data-name="Layer 1" xmlns="http://www.w3.org/2000/svg" viewBox="0 0 610.12 127.04"><defs><style>.cls-1{fill:#095ca6;}.cls-2{fill:#3f3f3f;}</style></defs><title>Artboard 3</title><path class="cls-1" d="M4.21,27.1c0,13.82,13.42,23,37.78,25.81l24.07,2.8c9.27,1,20.32,3.36,20.32,9.08S74.54,75,58.83,75c-24.58,0-32.17-7.68-36-14.36l-.69-1.16L0,65.4l.56,1.54c2.19,6,12.84,25.54,57.72,25.54,32.6,0,51.29-10.65,51.29-29.21,0-14.33-12.22-22.88-37.35-26.14l-23.8-3c-21-2.2-21-6.29-21-8,0-6.71,13.43-9.09,24.94-9.09,25.2,0,31.25,7.5,33.62,13.15l.57,1.41,21.94-6.1-.67-1.57C105.28,17.94,97.65,0,52.88,0,21.5,0,4.21,9.62,4.21,27.1Z"/><path class="cls-1" d="M5.21,27.1c0,13.53,13.26,22.52,37.34,25.31l24.07,2.8c9.48,1,20.77,3.48,20.77,9.58S75.59,75.55,59.33,75.55c-24.84,0-32.55-7.82-36.48-14.61l-.49-.83L1.16,65.74l.37,1C3.69,72.67,14.21,92,58.78,92c32.28,0,50.79-10.46,50.79-28.71,0-14-12.07-22.42-36.91-25.65l-23.8-3C27.39,32.33,27.39,28.09,27.39,26c0-7.07,13.14-9.59,25.44-9.59,25.5,0,31.66,7.69,34.08,13.45l.41,1,21-5.83-.45-1C105.36,18.22,97.81.5,53.38.5,22.32.5,5.21,10,5.21,27.1Z"/><path class="cls-1" d="M174.83,56.35c0,21.95,17.78,36.13,45.3,36.13,29.31,0,40-16.83,41.42-22.72l.46-1.94H239.36l-.46,1c-2,3.93-8.28,8.53-19.33,8.53-12.58-.42-20.18-5.5-22.67-15H263v-1.6c0-25.61-15.68-39.84-44.15-40.09C188.44,20.58,174.83,38.54,174.83,56.35Zm43.6-20.57c11.8,0,18.64,3.77,21.5,11.77H197.72C200.85,39.65,207.61,35.78,218.42,35.78Z"/><path class="cls-1" d="M175.33,56.35C175.33,78,192.92,92,220.13,92c29,0,39.53-16.55,40.94-22.34l.32-1.33H239.67l-.33.67c-2.07,4.05-8.48,8.81-19.78,8.81-13.26-.44-21-5.92-23.35-16h66.3v-1.1c0-25.29-15.5-39.35-43.65-39.59C188.79,21.08,175.33,38.8,175.33,56.35Zm43.1-21.07c12.49,0,19.49,4.17,22.24,12.77H196.95C200,39.56,206.94,35.28,218.42,35.28Z"/><path class="cls-1" d="M283.74,22.74h-22l31.52,67.58h19l18.17-42.2,18.17,42.2h19.3l31.24-67.58H377.38l-19,42.46-18.9-42.46h-18L302.8,65.14l-18.74-42.4Z"/><path class="cls-1" d="M396.46,23.24H377.7L358.35,66.42,339.12,23.24H321.74S304.95,61.51,302.8,66.38L283.74,23.24H262.51l31.06,66.58h18.38s16.36-38,18.5-43c2.15,5,18.5,43,18.5,43h18.65l30.77-66.58Z"/><path class="cls-1" d="M402.07,42.33l-.46,2h21.9l.35-1.21c.51-1.81,2.05-7.3,18.79-7.3,11.87,0,17.9,2.28,17.9,6.78v1.38c-19.17,1-62.76,3.3-62.76,27.52,0,16.6,19.65,21,31.26,21a72.12,72.12,0,0,0,31.87-7.75l.87,5.74,1.6-.14h21l-1.5-2.39c-.44-.71-1.19-2.9-1.19-9.65V46.15c0-8.3,0-25.57-39.19-25.57C426.48,20.58,406.45,24.35,402.07,42.33Zm18.58,28.32V70.4c.11-4.61,4.39-7.33,14.74-9.38A161.42,161.42,0,0,1,460.55,58V70c-7.24,3.64-17,7.76-29,7.76-4,0-7.11-.83-8.93-2.4A6,6,0,0,1,420.66,70.65Z"/><path class="cls-1" d="M402.56,42.45l-.32,1.33h20.9l.24-.85c.54-1.9,2.18-7.66,19.27-7.66,12.2,0,18.4,2.44,18.4,7.28v1.85c-19.71,1-62.76,3.5-62.76,27,0,16.21,19.34,20.53,30.76,20.53,14.81,0,25.72-4.83,32.26-8l.9,5.94,1.13-.1H483.5l-1-1.62c-.57-.91-1.27-3.37-1.27-9.92V46.15c0-8.14,0-25.07-38.69-25.07C426.66,21.08,406.86,24.78,402.56,42.45Zm19.78,33.3a6.46,6.46,0,0,1-2.18-5.1V70.4c.12-4.91,4.5-7.77,15.15-9.87a162.4,162.4,0,0,1,25.75-3.1V70.33c-7.44,3.76-17.36,7.95-29.45,7.95C427.45,78.28,424.24,77.4,422.34,75.75Z"/><path class="cls-1" d="M543.61,20.58c-10.77,0-19.24,3.18-25.27,9.37V22.74H497.17V90.32h21.17V54.56c.15-5,.46-15.56,20.73-15.67a42.29,42.29,0,0,1,9.76,1l2.15.47.65-1.81V20.89l-8-.31Z"/><path class="cls-1" d="M517.84,31.15V23.24H497.67V89.82h20.17V54.56c.15-5,.47-16.06,21.23-16.17A42.76,42.76,0,0,1,549,39.44l1.63.36.47-1.32V21.37l-7.53-.29C530,21.08,522.33,26.13,517.84,31.15Z"/><path class="cls-1" d="M582.09,6.38H561.42V72.17c0,14,8.55,20.3,27.72,20.3a147.28,147.28,0,0,0,18.24-1.35l2.54-.27V74.3l-2.26.53a80.31,80.31,0,0,1-14.56,1.74c-7.28,0-10.52-2.43-10.52-7.87V38.49h27.54V22.56H582.59V6.38Z"/><path class="cls-1" d="M561.92,6.88V72.17c0,13.69,8.38,19.8,27.22,19.8a147.16,147.16,0,0,0,18.19-1.35l2.1-.23V74.93l-1.64.39a81.09,81.09,0,0,1-14.67,1.75c-7.53,0-11-2.66-11-8.37V38h27.54V23.06H582.09V6.88Z"/><path class="cls-1" d="M141.06,6.38H120.39V72.17c0,14,8.55,20.3,27.73,20.3a147.32,147.32,0,0,0,18.24-1.35l2.55-.27V74.3l-2.27.53a80.27,80.27,0,0,1-14.55,1.74c-7.28,0-10.53-2.43-10.53-7.87V38.49H169.1V22.56H141.56V6.38Z"/><path class="cls-1" d="M120.89,6.88V72.17c0,13.69,8.4,19.8,27.23,19.8a147.07,147.07,0,0,0,18.19-1.35l2.1-.23V74.93l-1.66.39a80.93,80.93,0,0,1-14.66,1.75c-7.53,0-11-2.66-11-8.37V38H168.6V23.06H141.06V6.88Z"/><path class="cls-2" d="M9.17,106.1H24.85v4.12H13.7v4.38h9.82v4.12H13.7v8H9.17Z"/><path class="cls-2" d="M73.95,106.1h4.53v20.58H73.95Z"/><path class="cls-2" d="M128.9,106.1h4.53v16.47h10.26v4.12H128.9Z"/><path class="cls-2" d="M192.38,106.1h4.88l5.41,8.7,5.41-8.7H213v20.58h-4.5V113.24L202.67,122h-.12l-5.73-8.7v13.35h-4.44Z"/><path class="cls-2" d="M261.77,123.68l2.68-3.2a9.44,9.44,0,0,0,6.14,2.5c1.85,0,3-.73,3-1.94V121c0-1.15-.71-1.74-4.15-2.62-4.15-1.06-6.82-2.21-6.82-6.29V112c0-3.73,3-6.2,7.2-6.2a11.91,11.91,0,0,1,7.64,2.62l-2.35,3.41a9.65,9.65,0,0,0-5.35-2c-1.73,0-2.65.79-2.65,1.79v.06c0,1.35.88,1.79,4.44,2.71,4.18,1.09,6.53,2.59,6.53,6.18v.06c0,4.09-3.12,6.38-7.56,6.38A13.1,13.1,0,0,1,261.77,123.68Z"/><path class="cls-2" d="M326.37,116.45v-.06a10.46,10.46,0,0,1,10.73-10.64,10.62,10.62,0,0,1,8.12,3.17l-2.88,3.32a7.6,7.6,0,0,0-5.26-2.32,6.1,6.1,0,0,0-6,6.41v.06c0,3.53,2.44,6.47,6,6.47a7.43,7.43,0,0,0,5.41-2.41l2.88,2.91a10.52,10.52,0,0,1-8.44,3.68A10.39,10.39,0,0,1,326.37,116.45Z"/><path class="cls-2" d="M394.26,106.1h9.41a8.2,8.2,0,0,1,6,2.09,6.46,6.46,0,0,1,1.76,4.7V113a6.39,6.39,0,0,1-4.41,6.38l5,7.35h-5.29l-4.41-6.59h-3.56v6.59h-4.53Zm9.12,10c2.21,0,3.47-1.18,3.47-2.91v-.06c0-1.94-1.35-2.94-3.56-2.94h-4.5v5.91Z"/><path class="cls-2" d="M460.8,106.1h15.52v4h-11v4.17H475v4h-9.7v4.32h11.17v4H460.8Z"/><path class="cls-2" d="M525.78,106.1H541.3v4h-11v4.17H540v4h-9.7v4.32h11.17v4H525.78Z"/><path class="cls-2" d="M590.76,106.1h4.17l9.64,12.67V106.1H609v20.58h-3.85l-10-13.08v13.08h-4.47Z"/></svg>